<svg width="408" height="408" viewBox="0 0 408 408" fill="none" xmlns="http://www.w3.org/2000/svg">
<g filter="url(#filter0_f_26_61)">
<circle cx="204" cy="204" r="88" fill="#FF0000"/>
</g>
<g filter="url(#filter1_f_26_61)">
<circle cx="203.5" cy="204.5" r="74.5" fill="white"/>
</g>
<g filter="url(#filter2_f_26_61)">
<circle cx="204.5" cy="204.5" r="71.5" fill="white"/>
</g>
<g filter="url(#filter3_iiiiii_26_61)">
<path fill-rule="evenodd" clip-rule="evenodd" d="M128.869 231H183.47H184.001C184.192 231.339 184.39 231.672 184.597 232C188.756 238.608 196.115 243 204.5 243C213.301 243 220.972 238.162 224.999 231H280.131C279.205 237.089 277.545 243.059 275.177 248.775C271.332 258.057 265.697 266.49 258.594 273.594C251.49 280.697 243.057 286.332 233.775 290.177C224.494 294.021 214.546 296 204.5 296C194.454 296 184.506 294.021 175.225 290.177C165.943 286.332 157.51 280.697 150.406 273.594C143.303 266.49 137.668 258.057 133.823 248.775C131.455 243.059 129.795 237.089 128.869 231Z" fill="url(#paint0_radial_26_61)"/>
<path fill-rule="evenodd" clip-rule="evenodd" d="M280.131 209H224.999C224.684 208.44 224.347 207.895 223.989 207.365L223.987 207.361C219.763 201.11 212.612 197 204.5 197C196.714 197 189.812 200.787 185.536 206.619C184.979 207.379 184.466 208.174 184.001 209H128.869C129.795 202.911 131.455 196.941 133.823 191.225C137.668 181.943 143.303 173.51 150.406 166.406C157.51 159.303 165.943 153.668 175.225 149.823C184.506 145.979 194.454 144 204.5 144C214.546 144 224.494 145.979 233.775 149.823C243.057 153.668 251.49 159.303 258.594 166.406C265.697 173.51 271.332 181.943 275.177 191.225C277.545 196.941 279.205 202.911 280.131 209Z" fill="url(#paint1_radial_26_61)"/>
<path d="M219 220C219 228.56 212.06 235.5 203.5 235.5C194.94 235.5 188 228.56 188 220C188 211.44 194.94 204.5 203.5 204.5C212.06 204.5 219 211.44 219 220Z" fill="url(#paint2_radial_26_61)"/>
<path fill-rule="evenodd" clip-rule="evenodd" d="M223.989 207.365L223.987 207.361Z" fill="#E50020"/>
<path fill-rule="evenodd" clip-rule="evenodd" d="M184.597 232C188.756 238.608 196.115 243 204.5 243C212.885 243 220.244 238.609 224.403 232H280.141C280.707 228.249 281 224.409 281 220.5C281 216.243 280.799 213.068 280.131 209H224.999C224.684 208.44 224.347 207.895 223.989 207.365L223.987 207.361C219.763 201.11 212.612 197 204.5 197C195.699 197 188.028 201.838 184.001 209H128.859C128.19 213.068 128 216.243 128 220.5C128 224.409 128.293 227.249 128.859 231L129.028 232L184.597 232ZM214.198 209C211.522 206.518 207.938 205 204 205C200.062 205 196.478 206.518 193.802 209C190.848 211.739 189 215.654 189 220C189 224.907 191.356 229.263 194.999 232C197.506 233.884 200.623 235 204 235C207.377 235 210.494 233.884 213.001 232C216.644 229.263 219 224.907 219 220C219 215.654 217.152 211.739 214.198 209Z" fill="url(#paint3_radial_26_61)"/>
<path d="M282 220.5C282 263.854 246.854 299 203.5 299C160.146 299 125 263.854 125 220.5C125 177.146 160.146 142 203.5 142C246.854 142 282 177.146 282 220.5ZM135.174 220.5C135.174 258.235 165.765 288.826 203.5 288.826C241.235 288.826 271.826 258.235 271.826 220.5C271.826 182.765 241.235 152.174 203.5 152.174C165.765 152.174 135.174 182.765 135.174 220.5Z" fill="black"/>
</g>
<defs>
<filter id="filter0_f_26_61" x="0" y="0" width="408" height="408" filterUnits="userSpaceOnUse" color-interpolation-filters="sRGB">
<feFlood flood-opacity="0" result="BackgroundImageFix"/>
<feBlend mode="normal" in="SourceGraphic" in2="BackgroundImageFix" result="shape"/>
<feGaussianBlur stdDeviation="58" result="effect1_foregroundBlur_26_61"/>
</filter>
<filter id="filter1_f_26_61" x="98" y="99" width="211" height="211" filterUnits="userSpaceOnUse" color-interpolation-filters="sRGB">
<feFlood flood-opacity="0" result="BackgroundImageFix"/>
<feBlend mode="normal" in="SourceGraphic" in2="BackgroundImageFix" result="shape"/>
<feGaussianBlur stdDeviation="15.5" result="effect1_foregroundBlur_26_61"/>
</filter>
<filter id="filter2_f_26_61" x="33" y="33" width="343" height="343" filterUnits="userSpaceOnUse" color-interpolation-filters="sRGB">
<feFlood flood-opacity="0" result="BackgroundImageFix"/>
<feBlend mode="normal" in="SourceGraphic" in2="BackgroundImageFix" result="shape"/>
<feGaussianBlur stdDeviation="50" result="effect1_foregroundBlur_26_61"/>
</filter>
<filter id="filter3_iiiiii_26_61" x="109" y="126" width="185" height="182" filterUnits="userSpaceOnUse" color-interpolation-filters="sRGB">
<feFlood flood-opacity="0" result="BackgroundImageFix"/>
<feBlend mode="normal" in="SourceGraphic" in2="BackgroundImageFix" result="shape"/>
<feColorMatrix in="SourceAlpha" type="matrix" values="0 0 0 0 0 0 0 0 0 0 0 0 0 0 0 0 0 0 127 0" result="hardAlpha"/>
<feOffset dx="41" dy="7"/>
<feGaussianBlur stdDeviation="6"/>
<feComposite in2="hardAlpha" operator="arithmetic" k2="-1" k3="1"/>
<feColorMatrix type="matrix" values="0 0 0 0 0 0 0 0 0 0 0 0 0 0 0 0 0 0 0.25 0"/>
<feBlend mode="normal" in2="shape" result="effect1_innerShadow_26_61"/>
<feColorMatrix in="SourceAlpha" type="matrix" values="0 0 0 0 0 0 0 0 0 0 0 0 0 0 0 0 0 0 127 0" result="hardAlpha"/>
<feOffset dx="20" dy="3"/>
<feGaussianBlur stdDeviation="5"/>
<feComposite in2="hardAlpha" operator="arithmetic" k2="-1" k3="1"/>
<feColorMatrix type="matrix" values="0 0 0 0 0 0 0 0 0 0 0 0 0 0 0 0 0 0 0.62 0"/>
<feBlend mode="normal" in2="effect1_innerShadow_26_61" result="effect2_innerShadow_26_61"/>
<feColorMatrix in="SourceAlpha" type="matrix" values="0 0 0 0 0 0 0 0 0 0 0 0 0 0 0 0 0 0 127 0" result="hardAlpha"/>
<feOffset dx="-23"/>
<feGaussianBlur stdDeviation="5.5"/>
<feComposite in2="hardAlpha" operator="arithmetic" k2="-1" k3="1"/>
<feColorMatrix type="matrix" values="0 0 0 0 0 0 0 0 0 0 0 0 0 0 0 0 0 0 0.65 0"/>
<feBlend mode="normal" in2="effect2_innerShadow_26_61" result="effect3_innerShadow_26_61"/>
<feColorMatrix in="SourceAlpha" type="matrix" values="0 0 0 0 0 0 0 0 0 0 0 0 0 0 0 0 0 0 127 0" result="hardAlpha"/>
<feOffset dx="-38" dy="4"/>
<feGaussianBlur stdDeviation="8"/>
<feComposite in2="hardAlpha" operator="arithmetic" k2="-1" k3="1"/>
<feColorMatrix type="matrix" values="0 0 0 0 0 0 0 0 0 0 0 0 0 0 0 0 0 0 0.25 0"/>
<feBlend mode="normal" in2="effect3_innerShadow_26_61" result="effect4_innerShadow_26_61"/>
<feColorMatrix in="SourceAlpha" type="matrix" values="0 0 0 0 0 0 0 0 0 0 0 0 0 0 0 0 0 0 127 0" result="hardAlpha"/>
<feOffset dy="9"/>
<feGaussianBlur stdDeviation="10.5"/>
<feComposite in2="hardAlpha" operator="arithmetic" k2="-1" k3="1"/>
<feColorMatrix type="matrix" values="0 0 0 0 1 0 0 0 0 0.641667 0 0 0 0 0.641667 0 0 0 1 0"/>
<feBlend mode="normal" in2="effect4_innerShadow_26_61" result="effect5_innerShadow_26_61"/>
<feColorMatrix in="SourceAlpha" type="matrix" values="0 0 0 0 0 0 0 0 0 0 0 0 0 0 0 0 0 0 127 0" result="hardAlpha"/>
<feOffset dy="-33"/>
<feGaussianBlur stdDeviation="8"/>
<feComposite in2="hardAlpha" operator="arithmetic" k2="-1" k3="1"/>
<feColorMatrix type="matrix" values="0 0 0 0 0 0 0 0 0 0 0 0 0 0 0 0 0 0 0.69 0"/>
<feBlend mode="normal" in2="effect5_innerShadow_26_61" result="effect6_innerShadow_26_61"/>
</filter>
<radialGradient id="paint0_radial_26_61" cx="0" cy="0" r="1" gradientUnits="userSpaceOnUse" gradientTransform="translate(203.5 220.5) rotate(90) scale(78.5)">
<stop offset="0.578125" stop-color="white"/>
<stop offset="1" stop-color="#A9A9A9"/>
</radialGradient>
<radialGradient id="paint1_radial_26_61" cx="0" cy="0" r="1" gradientUnits="userSpaceOnUse" gradientTransform="translate(203.5 220.5) rotate(90) scale(78.5)">
<stop offset="0.447917" stop-color="#E50020"/>
<stop offset="1" stop-color="#69000F"/>
</radialGradient>
<radialGradient id="paint2_radial_26_61" cx="0" cy="0" r="1" gradientUnits="userSpaceOnUse" gradientTransform="translate(204 220) rotate(127.747) scale(19.6023)">
<stop stop-color="white"/>
<stop offset="0.880208" stop-color="#2E2E2E"/>
</radialGradient>
<radialGradient id="paint3_radial_26_61" cx="0" cy="0" r="1" gradientUnits="userSpaceOnUse" gradientTransform="translate(203.5 220.5) rotate(-179.497) scale(57.0022)">
<stop offset="0.0001"/>
<stop offset="0.635417" stop-color="#1B1B1B"/>
<stop offset="1" stop-color="#0D131A"/>
</radialGradient>
</defs>
</svg>
