<svg width="408" height="408" viewBox="0 0 408 408" fill="none" xmlns="http://www.w3.org/2000/svg">
<g filter="url(#filter0_f_26_61)">
<circle cx="204" cy="204" r="88" fill="#FF0000"/>
</g>
<g filter="url(#filter1_f_26_61)">
<circle cx="203.5" cy="204.5" r="74.5" fill="white"/>
</g>
<g filter="url(#filter2_f_26_61)">
<circle cx="204.5" cy="204.5" r="71.5" fill="white"/>
</g>
<g filter="url(#filter3_iiiii_26_61)">
<path fill-rule="evenodd" clip-rule="evenodd" d="M128.869 219H183.47H184.001C184.192 219.339 184.39 219.672 184.597 220C188.756 226.608 196.115 231 204.5 231C213.301 231 220.972 226.162 224.999 219H280.131C279.205 225.089 277.545 231.059 275.177 236.775C271.332 246.057 265.697 254.49 258.594 261.594C251.49 268.697 243.057 274.332 233.775 278.177C224.494 282.021 214.546 284 204.5 284C194.454 284 184.506 282.021 175.225 278.177C165.943 274.332 157.51 268.697 150.406 261.594C143.303 254.49 137.668 246.057 133.823 236.775C131.455 231.059 129.795 225.089 128.869 219Z" fill="url(#paint0_radial_26_61)"/>
<path fill-rule="evenodd" clip-rule="evenodd" d="M280.131 197H224.999C224.684 196.44 224.347 195.895 223.989 195.365L223.987 195.361C219.763 189.11 212.612 185 204.5 185C196.714 185 189.812 188.787 185.536 194.619C184.979 195.379 184.466 196.174 184.001 197H128.869C129.795 190.911 131.455 184.941 133.823 179.225C137.668 169.943 143.303 161.51 150.406 154.406C157.51 147.303 165.943 141.668 175.225 137.823C184.506 133.979 194.454 132 204.5 132C214.546 132 224.494 133.979 233.775 137.823C243.057 141.668 251.49 147.303 258.594 154.406C265.697 161.51 271.332 169.943 275.177 179.225C277.545 184.941 279.205 190.911 280.131 197Z" fill="url(#paint1_radial_26_61)"/>
<path d="M220 208.5C220 217.06 213.06 224 204.5 224C195.94 224 189 217.06 189 208.5C189 199.94 195.94 193 204.5 193C213.06 193 220 199.94 220 208.5Z" fill="url(#paint2_diamond_26_61)"/>
<path fill-rule="evenodd" clip-rule="evenodd" d="M223.989 195.365L223.987 195.361Z" fill="#E50020"/>
<path fill-rule="evenodd" clip-rule="evenodd" d="M184.597 220C188.756 226.608 196.115 231 204.5 231C212.885 231 220.244 226.609 224.403 220H280.141C280.707 216.249 281 212.409 281 208.5C281 204.243 280.799 201.068 280.131 197H224.999C224.684 196.44 224.347 195.895 223.989 195.365L223.987 195.361C219.763 189.11 212.612 185 204.5 185C195.699 185 188.028 189.838 184.001 197H128.859C128.19 201.068 128 204.243 128 208.5C128 212.409 128.293 215.249 128.859 219L129.028 220L184.597 220ZM214.198 197C211.522 194.518 207.938 193 204 193C200.062 193 196.478 194.518 193.802 197C190.848 199.739 189 203.654 189 208C189 212.907 191.356 217.263 194.999 220C197.506 221.884 200.623 223 204 223C207.377 223 210.494 221.884 213.001 220C216.644 217.263 219 212.907 219 208C219 203.654 217.152 199.739 214.198 197Z" fill="url(#paint3_radial_26_61)"/>
<path d="M282 208.5C282 251.854 246.854 287 203.5 287C160.146 287 125 251.854 125 208.5C125 165.146 160.146 130 203.5 130C246.854 130 282 165.146 282 208.5ZM135.174 208.5C135.174 246.235 165.765 276.826 203.5 276.826C241.235 276.826 271.826 246.235 271.826 208.5C271.826 170.765 241.235 140.174 203.5 140.174C165.765 140.174 135.174 170.765 135.174 208.5Z" fill="black"/>
</g>
<defs>
<filter id="filter0_f_26_61" x="0" y="0" width="408" height="408" filterUnits="userSpaceOnUse" color-interpolation-filters="sRGB">
<feFlood flood-opacity="0" result="BackgroundImageFix"/>
<feBlend mode="normal" in="SourceGraphic" in2="BackgroundImageFix" result="shape"/>
<feGaussianBlur stdDeviation="58" result="effect1_foregroundBlur_26_61"/>
</filter>
<filter id="filter1_f_26_61" x="98" y="99" width="211" height="211" filterUnits="userSpaceOnUse" color-interpolation-filters="sRGB">
<feFlood flood-opacity="0" result="BackgroundImageFix"/>
<feBlend mode="normal" in="SourceGraphic" in2="BackgroundImageFix" result="shape"/>
<feGaussianBlur stdDeviation="15.5" result="effect1_foregroundBlur_26_61"/>
</filter>
<filter id="filter2_f_26_61" x="33" y="33" width="343" height="343" filterUnits="userSpaceOnUse" color-interpolation-filters="sRGB">
<feFlood flood-opacity="0" result="BackgroundImageFix"/>
<feBlend mode="normal" in="SourceGraphic" in2="BackgroundImageFix" result="shape"/>
<feGaussianBlur stdDeviation="50" result="effect1_foregroundBlur_26_61"/>
</filter>
<filter id="filter3_iiiii_26_61" x="109" y="130" width="190" height="164" filterUnits="userSpaceOnUse" color-interpolation-filters="sRGB">
<feFlood flood-opacity="0" result="BackgroundImageFix"/>
<feBlend mode="normal" in="SourceGraphic" in2="BackgroundImageFix" result="shape"/>
<feColorMatrix in="SourceAlpha" type="matrix" values="0 0 0 0 0 0 0 0 0 0 0 0 0 0 0 0 0 0 127 0" result="hardAlpha"/>
<feOffset dx="41" dy="7"/>
<feGaussianBlur stdDeviation="6"/>
<feComposite in2="hardAlpha" operator="arithmetic" k2="-1" k3="1"/>
<feColorMatrix type="matrix" values="0 0 0 0 0 0 0 0 0 0 0 0 0 0 0 0 0 0 0.25 0"/>
<feBlend mode="normal" in2="shape" result="effect1_innerShadow_26_61"/>
<feColorMatrix in="SourceAlpha" type="matrix" values="0 0 0 0 0 0 0 0 0 0 0 0 0 0 0 0 0 0 127 0" result="hardAlpha"/>
<feOffset dx="20" dy="3"/>
<feGaussianBlur stdDeviation="5"/>
<feComposite in2="hardAlpha" operator="arithmetic" k2="-1" k3="1"/>
<feColorMatrix type="matrix" values="0 0 0 0 0 0 0 0 0 0 0 0 0 0 0 0 0 0 0.62 0"/>
<feBlend mode="normal" in2="effect1_innerShadow_26_61" result="effect2_innerShadow_26_61"/>
<feColorMatrix in="SourceAlpha" type="matrix" values="0 0 0 0 0 0 0 0 0 0 0 0 0 0 0 0 0 0 127 0" result="hardAlpha"/>
<feOffset dx="-23"/>
<feGaussianBlur stdDeviation="5.5"/>
<feComposite in2="hardAlpha" operator="arithmetic" k2="-1" k3="1"/>
<feColorMatrix type="matrix" values="0 0 0 0 0 0 0 0 0 0 0 0 0 0 0 0 0 0 0.65 0"/>
<feBlend mode="normal" in2="effect2_innerShadow_26_61" result="effect3_innerShadow_26_61"/>
<feColorMatrix in="SourceAlpha" type="matrix" values="0 0 0 0 0 0 0 0 0 0 0 0 0 0 0 0 0 0 127 0" result="hardAlpha"/>
<feOffset dx="-38" dy="4"/>
<feGaussianBlur stdDeviation="8"/>
<feComposite in2="hardAlpha" operator="arithmetic" k2="-1" k3="1"/>
<feColorMatrix type="matrix" values="0 0 0 0 0 0 0 0 0 0 0 0 0 0 0 0 0 0 0.25 0"/>
<feBlend mode="normal" in2="effect3_innerShadow_26_61" result="effect4_innerShadow_26_61"/>
<feColorMatrix in="SourceAlpha" type="matrix" values="0 0 0 0 0 0 0 0 0 0 0 0 0 0 0 0 0 0 127 0" result="hardAlpha"/>
<feOffset dx="166" dy="4"/>
<feGaussianBlur stdDeviation="8.5"/>
<feComposite in2="hardAlpha" operator="arithmetic" k2="-1" k3="1"/>
<feColorMatrix type="matrix" values="0 0 0 0 0.8 0 0 0 0 0.14 0 0 0 0 0.14 0 0 0 0.3 0"/>
<feBlend mode="color-dodge" in2="effect4_innerShadow_26_61" result="effect5_innerShadow_26_61"/>
</filter>
<radialGradient id="paint0_radial_26_61" cx="0" cy="0" r="1" gradientUnits="userSpaceOnUse" gradientTransform="translate(203.5 208.5) rotate(90) scale(78.5)">
<stop offset="0.578125" stop-color="white"/>
<stop offset="1" stop-color="#A9A9A9"/>
</radialGradient>
<radialGradient id="paint1_radial_26_61" cx="0" cy="0" r="1" gradientUnits="userSpaceOnUse" gradientTransform="translate(203.5 208.5) rotate(90) scale(78.5)">
<stop offset="0.447917" stop-color="#E50020"/>
<stop offset="1" stop-color="#69000F"/>
</radialGradient>
<radialGradient id="paint2_diamond_26_61" cx="0" cy="0" r="1" gradientUnits="userSpaceOnUse" gradientTransform="translate(206.032 205.968) rotate(90) scale(70.9032)">
<stop stop-color="white"/>
<stop offset="1" stop-color="#444444"/>
</radialGradient>
<radialGradient id="paint3_radial_26_61" cx="0" cy="0" r="1" gradientUnits="userSpaceOnUse" gradientTransform="translate(203.5 208.5) rotate(90) scale(78.5)">
<stop offset="0.0001" stop-color="#575757"/>
<stop offset="0.760417"/>
<stop offset="1" stop-color="#0D131A"/>
</radialGradient>
</defs>
</svg>
