<svg width="155" height="152" viewBox="0 0 155 152" fill="none" xmlns="http://www.w3.org/2000/svg">
<mask id="path-1-inside-1_24_8" fill="white">
<path fill-rule="evenodd" clip-rule="evenodd" d="M1.85866 88H153.141C153.707 84.249 154 80.4087 154 76.5C154 72.2432 153.652 68.0676 152.984 64H2.01621C1.34768 68.0676 1 72.2432 1 76.5C1 80.4087 1.29315 84.249 1.85866 88Z"/>
<path fill-rule="evenodd" clip-rule="evenodd" d="M2.01621 64H152.984C153.652 68.0676 154 72.2432 154 76.5C154 80.4087 153.707 84.249 153.141 88H1.85866C1.29315 84.249 1 80.4087 1 76.5C1 72.2432 1.34768 68.0676 2.01621 64Z"/>
<path d="M101 76.5C101 89.4787 90.4787 100 77.5 100C64.5213 100 54 89.4787 54 76.5C54 63.5213 64.5213 53 77.5 53C90.4787 53 101 63.5213 101 76.5Z"/>
<path d="M92 76C92 84.2843 85.2843 91 77 91C68.7157 91 62 84.2843 62 76C62 67.7157 68.7157 61 77 61C85.2843 61 92 67.7157 92 76Z"/>
<path fill-rule="evenodd" clip-rule="evenodd" d="M1.86932 87H57.0013C61.0278 94.1618 68.6989 99 77.5 99C86.3011 99 93.9722 94.1618 97.9987 87H153.131C152.205 93.0894 150.545 99.0587 148.177 104.775C144.332 114.057 138.697 122.49 131.594 129.594C124.49 136.697 116.057 142.332 106.775 146.177C97.4939 150.021 87.5461 152 77.5 152C67.4539 152 57.5061 150.021 48.2247 146.177C38.9433 142.332 30.51 136.697 23.4063 129.594C16.3026 122.49 10.6677 114.057 6.82321 104.775C4.45534 99.0587 2.79524 93.0894 1.86932 87Z"/>
<path fill-rule="evenodd" clip-rule="evenodd" d="M153.131 65H97.9987C93.9722 57.8382 86.3011 53 77.5 53C68.6989 53 61.0278 57.8382 57.0013 65H1.86933C2.79526 58.9106 4.45536 52.9413 6.82323 47.2247C10.6677 37.9433 16.3027 29.51 23.4063 22.4063C30.51 15.3026 38.9433 9.6677 48.2247 5.82321C57.5061 1.97873 67.4539 -4.75386e-07 77.5 0C87.5461 4.75386e-07 97.4939 1.97873 106.775 5.82321C116.057 9.6677 124.49 15.3027 131.594 22.4063C138.697 29.51 144.332 37.9433 148.177 47.2247C150.545 52.9413 152.205 58.9106 153.131 65Z"/>
</mask>
<g filter="url(#filter0_i_24_8)">
<path fill-rule="evenodd" clip-rule="evenodd" d="M1.85866 88H153.141C153.707 84.249 154 80.4087 154 76.5C154 72.2432 153.652 68.0676 152.984 64H2.01621C1.34768 68.0676 1 72.2432 1 76.5C1 80.4087 1.29315 84.249 1.85866 88Z" fill="#D9D9D9"/>
<path fill-rule="evenodd" clip-rule="evenodd" d="M2.01621 64H152.984C153.652 68.0676 154 72.2432 154 76.5C154 80.4087 153.707 84.249 153.141 88H1.85866C1.29315 84.249 1 80.4087 1 76.5C1 72.2432 1.34768 68.0676 2.01621 64Z" fill="#141414"/>
<path d="M101 76.5C101 89.4787 90.4787 100 77.5 100C64.5213 100 54 89.4787 54 76.5C54 63.5213 64.5213 53 77.5 53C90.4787 53 101 63.5213 101 76.5Z" fill="#141414"/>
<path d="M92 76C92 84.2843 85.2843 91 77 91C68.7157 91 62 84.2843 62 76C62 67.7157 68.7157 61 77 61C85.2843 61 92 67.7157 92 76Z" fill="white"/>
<path fill-rule="evenodd" clip-rule="evenodd" d="M1.86932 87H57.0013C61.0278 94.1618 68.6989 99 77.5 99C86.3011 99 93.9722 94.1618 97.9987 87H153.131C152.205 93.0894 150.545 99.0587 148.177 104.775C144.332 114.057 138.697 122.49 131.594 129.594C124.49 136.697 116.057 142.332 106.775 146.177C97.4939 150.021 87.5461 152 77.5 152C67.4539 152 57.5061 150.021 48.2247 146.177C38.9433 142.332 30.51 136.697 23.4063 129.594C16.3026 122.49 10.6677 114.057 6.82321 104.775C4.45534 99.0587 2.79524 93.0894 1.86932 87Z" fill="white"/>
<path fill-rule="evenodd" clip-rule="evenodd" d="M153.131 65H97.9987C93.9722 57.8382 86.3011 53 77.5 53C68.6989 53 61.0278 57.8382 57.0013 65H1.86933C2.79526 58.9106 4.45536 52.9413 6.82323 47.2247C10.6677 37.9433 16.3027 29.51 23.4063 22.4063C30.51 15.3026 38.9433 9.6677 48.2247 5.82321C57.5061 1.97873 67.4539 -4.75386e-07 77.5 0C87.5461 4.75386e-07 97.4939 1.97873 106.775 5.82321C116.057 9.6677 124.49 15.3027 131.594 22.4063C138.697 29.51 144.332 37.9433 148.177 47.2247C150.545 52.9413 152.205 58.9106 153.131 65Z" fill="#E50020"/>
</g>
<path d="M152.984 64L156.437 63.4324L155.956 60.5H152.984V64ZM2.01621 64V60.5H-0.955512L-1.43746 63.4324L2.01621 64ZM1.85866 88L-1.60223 88.5218L-1.15323 91.5H1.85866V88ZM153.141 88V91.5H156.153L156.602 88.5218L153.141 88ZM157.5 76.5C157.5 72.0523 157.137 67.6868 156.437 63.4324L149.53 64.5676C150.168 68.4483 150.5 72.4341 150.5 76.5H157.5ZM152.984 60.5H2.01621V67.5H152.984V60.5ZM-1.43746 63.4324C-2.1367 67.6868 -2.5 72.0523 -2.5 76.5H4.5C4.5 72.4341 4.83207 68.4483 5.46987 64.5676L-1.43746 63.4324ZM1.85866 91.5H153.141V84.5H1.85866V91.5ZM156.602 88.5218C157.194 84.5986 157.5 80.584 157.5 76.5H150.5C150.5 80.2335 150.22 83.8993 149.68 87.4782L156.602 88.5218ZM-2.5 76.5C-2.5 80.584 -2.19369 84.5986 -1.60223 88.5218L5.31954 87.4782C4.77999 83.8993 4.5 80.2335 4.5 76.5H-2.5ZM149.68 86.4782C144.388 121.586 114.084 148.5 77.5 148.5V155.5C117.598 155.5 150.801 126.002 156.602 87.5218L149.68 86.4782ZM155 83.5H153.141V90.5H155V83.5ZM1.85866 83.5H0V90.5H1.85866V83.5ZM77.5 148.5C40.9163 148.5 10.6124 121.586 5.31954 86.4782L-1.60223 87.5218C4.19914 126.002 37.4016 155.5 77.5 155.5V148.5ZM153.131 90.5H153.141V83.5H153.131V90.5ZM1.85866 90.5H1.86932V83.5H1.85866V90.5ZM5.31957 65.5218C10.6124 30.4143 40.9163 3.5 77.5 3.5L77.5 -3.5C37.4016 -3.5 4.19916 25.9978 -1.60221 64.4782L5.31957 65.5218ZM1.84774e-05 68.5H1.85868V61.5H1.84774e-05V68.5ZM153.141 68.5H155V61.5H153.141V68.5ZM77.5 3.5C114.084 3.5 144.388 30.4143 149.68 65.5218L156.602 64.4782C150.801 25.9978 117.598 -3.5 77.5 -3.5L77.5 3.5ZM1.86933 61.5H1.85868V68.5H1.86933V61.5ZM153.141 61.5H153.131V68.5H153.141V61.5ZM148.177 104.775L141.71 102.096L141.71 102.096L148.177 104.775ZM77.5 152L77.5 159L77.5 152ZM6.82321 104.775L0.356056 107.454L0.356057 107.454L6.82321 104.775ZM57.0013 87L63.1031 83.5695L61.0962 80H57.0013V87ZM97.9987 87V80H93.9037L91.8969 83.5695L97.9987 87ZM153.131 87L160.051 88.0523L161.276 80H153.131V87ZM1.86932 87V80H-6.27553L-5.05114 88.0523L1.86932 87ZM6.82323 47.2247L13.2904 49.9035L13.2904 49.9035L6.82323 47.2247ZM77.5 0L77.5 -7L77.5 -7L77.5 0ZM148.177 47.2247L154.644 44.5459L154.644 44.5459L148.177 47.2247ZM97.9987 65L91.8969 68.4305L93.9038 72H97.9987V65ZM57.0013 65V72H61.0963L63.1031 68.4305L57.0013 65ZM1.86933 65L-5.05113 63.9477L-6.27553 72H1.86933V65ZM153.131 65V72H161.276L160.051 63.9477L153.131 65ZM94 76.5C94 85.6127 86.6127 93 77.5 93V107C94.3447 107 108 93.3447 108 76.5H94ZM77.5 93C68.3873 93 61 85.6127 61 76.5H47C47 93.3447 60.6553 107 77.5 107V93ZM61 76.5C61 67.3873 68.3873 60 77.5 60V46C60.6553 46 47 59.6553 47 76.5H61ZM77.5 60C86.6127 60 94 67.3873 94 76.5H108C108 59.6553 94.3447 46 77.5 46V60ZM85 76C85 80.4183 81.4183 84 77 84V98C89.1503 98 99 88.1503 99 76H85ZM77 84C72.5817 84 69 80.4183 69 76H55C55 88.1503 64.8497 98 77 98V84ZM69 76C69 71.5817 72.5817 68 77 68V54C64.8497 54 55 63.8497 55 76H69ZM77 68C81.4183 68 85 71.5817 85 76H99C99 63.8497 89.1503 54 77 54V68ZM141.71 102.096C138.217 110.529 133.098 118.19 126.644 124.644L136.543 134.543C144.297 126.79 150.448 117.585 154.644 107.454L141.71 102.096ZM126.644 124.644C120.19 131.098 112.529 136.217 104.097 139.71L109.454 152.644C119.585 148.448 128.79 142.297 136.543 134.543L126.644 124.644ZM104.097 139.71C95.6644 143.202 86.6269 145 77.5 145L77.5 159C88.4654 159 99.3234 156.84 109.454 152.644L104.097 139.71ZM77.5 145C68.3731 145 59.3356 143.202 50.9035 139.71L45.5459 152.644C55.6766 156.84 66.5346 159 77.5 159L77.5 145ZM50.9035 139.71C42.4714 136.217 34.8098 131.098 28.3561 124.644L18.4566 134.543C26.2103 142.297 35.4152 148.448 45.5459 152.644L50.9035 139.71ZM28.3561 124.644C21.9024 118.19 16.7831 110.529 13.2904 102.096L0.356057 107.454C4.55232 117.585 10.7029 126.79 18.4566 134.543L28.3561 124.644ZM91.8969 83.5695C89.0596 88.6161 83.6704 92 77.5 92V106C88.9319 106 98.8848 99.7075 104.1 90.4305L91.8969 83.5695ZM77.5 92C71.3296 92 65.9404 88.6161 63.1031 83.5695L50.8995 90.4305C56.1152 99.7074 66.0681 106 77.5 106V92ZM-5.05114 88.0523C-4.04049 94.6989 -2.22848 101.214 0.356056 107.454L13.2904 102.096C11.1392 96.903 9.63097 91.4799 8.78977 85.9477L-5.05114 88.0523ZM154.644 107.454C157.228 101.214 159.04 94.6989 160.051 88.0523L146.21 85.9477C145.369 91.4799 143.861 96.903 141.71 102.096L154.644 107.454ZM97.9987 94H153.131V80H97.9987V94ZM1.86932 94H57.0013V80H1.86932V94ZM13.2904 49.9035C16.7831 41.4714 21.9024 33.8097 28.3561 27.3561L18.4566 17.4566C10.7029 25.2103 4.55234 34.4152 0.356073 44.5459L13.2904 49.9035ZM28.3561 27.3561C34.8098 20.9024 42.4714 15.7831 50.9035 12.2904L45.5459 -0.643946C35.4153 3.55232 26.2103 9.70288 18.4566 17.4566L28.3561 27.3561ZM50.9035 12.2904C59.3356 8.79767 68.3731 7 77.5 7L77.5 -7C66.5346 -7 55.6766 -4.84021 45.5459 -0.643946L50.9035 12.2904ZM77.5 7C86.6269 7 95.6644 8.79767 104.097 12.2904L109.454 -0.643945C99.3234 -4.84021 88.4654 -7 77.5 -7L77.5 7ZM104.097 12.2904C112.529 15.7831 120.19 20.9024 126.644 27.3561L136.543 17.4566C128.79 9.7029 119.585 3.55232 109.454 -0.643945L104.097 12.2904ZM126.644 27.3561C133.098 33.8098 138.217 41.4714 141.71 49.9035L154.644 44.5459C150.448 34.4153 144.297 25.2103 136.543 17.4566L126.644 27.3561ZM63.1031 68.4305C65.9404 63.3838 71.3296 60 77.5 60L77.5 46C66.0681 46 56.1152 52.2925 50.8995 61.5695L63.1031 68.4305ZM77.5 60C83.6704 60 89.0596 63.3838 91.8969 68.4305L104.1 61.5695C98.8848 52.2925 88.9319 46 77.5 46L77.5 60ZM160.051 63.9477C159.04 57.3011 157.228 50.7856 154.644 44.5459L141.71 49.9035C143.861 55.097 145.369 60.5201 146.21 66.0523L160.051 63.9477ZM0.356073 44.5459C-2.22847 50.7856 -4.04047 57.3011 -5.05113 63.9477L8.78978 66.0523C9.63099 60.5201 11.1392 55.097 13.2904 49.9035L0.356073 44.5459ZM57.0013 58H1.86933V72H57.0013V58ZM153.131 58H97.9987V72H153.131V58Z" fill="black" mask="url(#path-1-inside-1_24_8)"/>
<defs>
<filter id="filter0_i_24_8" x="0" y="0" width="155" height="159" filterUnits="userSpaceOnUse" color-interpolation-filters="sRGB">
<feFlood flood-opacity="0" result="BackgroundImageFix"/>
<feBlend mode="normal" in="SourceGraphic" in2="BackgroundImageFix" result="shape"/>
<feColorMatrix in="SourceAlpha" type="matrix" values="0 0 0 0 0 0 0 0 0 0 0 0 0 0 0 0 0 0 127 0" result="hardAlpha"/>
<feOffset dy="25"/>
<feGaussianBlur stdDeviation="3.5"/>
<feComposite in2="hardAlpha" operator="arithmetic" k2="-1" k3="1"/>
<feColorMatrix type="matrix" values="0 0 0 0 0 0 0 0 0 0 0 0 0 0 0 0 0 0 0.25 0"/>
<feBlend mode="normal" in2="shape" result="effect1_innerShadow_24_8"/>
</filter>
</defs>
</svg>
